# 3ds Max Wavefront OBJ Exporter v0.97b - (c)2007 guruware
# File Created: 02.05.2014 14:15:08

#
# object FingerSponge01
#

v  -1.8085 4.6526 -0.8428
v  -0.0322 -0.0164 -0.0694
v  -2.5748 4.4398 -0.3836
v  0.0317 0.0161 0.1377
v  -2.5748 4.4398 0.5347
v  -1.8085 4.6526 0.9939
v  -1.0422 4.8654 0.5347
v  -1.0422 4.8654 -0.3836
v  -3.8678 9.4850 -0.6244
v  -2.6586 9.5715 -1.3243
v  -3.8678 9.4850 0.7755
v  -2.6586 9.5715 1.4755
v  -1.4493 9.6579 0.7755
v  -1.4493 9.6579 -0.6244
v  -3.8543 14.7336 -0.7030
v  -2.5168 14.5612 -1.4816
v  -3.8543 14.7336 0.8542
v  -2.5168 14.5612 1.6328
v  -1.1793 14.3888 0.8542
v  -1.1793 14.3888 -0.7030
v  -1.7461 18.2845 -1.3829
v  -2.9600 18.6336 -0.6537
v  -1.8026 18.0849 0.0756
v  -2.9600 18.6336 0.8048
v  -1.7461 18.2845 1.5341
v  -0.5322 17.9353 0.8048
v  -0.5322 17.9353 -0.6537
v  -1.4487 1.7602 -1.0548
v  -0.0397 -0.0311 -0.0174
v  -1.7181 1.8461 -0.4960
v  0.0620 0.0543 0.0511
v  -1.4148 2.1603 -0.0472
v  -0.8421 2.3884 -0.1571
v  -0.5726 2.3025 -0.7158
v  -0.8759 1.9883 -1.1646
v  -2.8637 3.9811 -1.4452
v  -2.3997 3.7078 -2.2334
v  -2.4014 4.4600 -0.7610
v  -1.4750 4.6656 -0.8649
v  -1.0110 4.3923 -1.6531
v  -1.4733 3.9134 -2.3373
v  -3.3788 6.2072 -2.7300
v  -2.8340 5.7464 -3.5164
v  -2.8645 6.7399 -1.9689
v  -1.8054 6.8118 -1.9941
v  -1.2606 6.3511 -2.7805
v  -1.7749 5.8184 -3.5416
v  -2.8079 7.3082 -4.5331
v  -3.3187 7.8469 -3.8713
v  -2.3322 7.7260 -3.7594
v  -2.8370 8.3459 -3.1584
v  -1.8445 8.3060 -3.1074
v  -1.3338 7.7672 -3.7692
v  -1.8155 7.2683 -4.4821
v  -0.3185 4.4132 -0.4821
v  -0.0260 0.0006 -0.0644
v  -1.0592 4.4412 -0.1414
v  0.0204 -0.0080 0.1244
v  -1.1354 4.4289 0.6707
v  -0.4709 4.3886 1.1421
v  0.2698 4.3606 0.8014
v  0.3460 4.3729 -0.0106
v  -0.5704 9.0333 -0.4857
v  0.4966 8.6518 -0.9978
v  -0.6630 9.1428 0.7495
v  0.3114 8.8708 1.4726
v  1.3784 8.4893 0.9605
v  1.4710 8.3798 -0.2747
v  1.3472 13.2477 -1.0322
v  2.3678 12.4801 -1.5637
v  1.3070 13.4993 0.3273
v  2.2875 12.9833 1.1554
v  3.3081 12.2157 0.6240
v  3.3482 11.9641 -0.7356
v  4.4283 14.9846 -2.0103
v  3.6447 15.9114 -1.5570
v  4.3268 15.1715 -0.7195
v  3.6723 16.2257 -0.3005
v  4.4835 15.6131 0.5028
v  5.2671 14.6863 0.0495
v  5.2395 14.3721 -1.2070
v  0.2103 2.3462 -0.8721
v  -0.0514 0.0099 -0.0100
v  0.1673 2.5493 -0.2813
v  0.0877 -0.0138 0.0391
v  0.6575 2.4954 0.1048
v  1.1906 2.2385 -0.1000
v  1.2336 2.0354 -0.6908
v  0.7434 2.0892 -1.0768
v  0.8686 4.9149 -1.1081
v  0.8723 4.4645 -1.9497
v  1.6158 4.8328 -0.5196
v  2.3665 4.3004 -0.7728
v  2.3702 3.8500 -1.6144
v  1.6230 3.9321 -2.2029
v  2.0110 6.9102 -2.3671
v  1.9295 6.2744 -3.2136
v  2.8421 6.8189 -1.7125
v  3.5917 6.0918 -1.9044
v  3.5103 5.4559 -2.7509
v  2.6792 5.5472 -3.4055
v  2.9722 7.4004 -4.2711
v  3.1179 8.0754 -3.5554
v  3.6944 7.2591 -3.5944
v  3.8963 7.9899 -2.9423
v  4.5290 7.2294 -3.0449
v  4.3832 6.5544 -3.7606
v  3.6048 6.6399 -4.3738
v  -0.5112 4.1322 -1.7289
v  -0.0259 -0.0172 -0.0426
v  -1.0330 4.2175 -1.4072
v  0.0275 0.0296 0.0869
v  -1.0058 4.3848 -0.8120
v  -0.4568 4.4669 -0.5384
v  0.0650 4.3816 -0.8601
v  0.0378 4.2143 -1.4553
v  -0.9022 8.6135 -2.8178
v  -0.1215 8.3276 -3.2635
v  -0.8608 8.8686 -1.9104
v  -0.0386 8.8378 -1.4489
v  0.7422 8.5519 -1.8947
v  0.7008 8.2968 -2.8020
v  0.3351 12.8938 -4.1327
v  1.1519 12.4095 -4.5795
v  0.3812 13.1776 -3.1234
v  1.2441 12.9769 -2.5609
v  2.0609 12.4926 -3.0076
v  2.0148 12.2088 -4.0169
v  2.6833 15.3394 -5.4040
v  1.9763 15.9035 -5.0192
v  2.6315 15.4527 -4.4114
v  2.0195 16.1692 -4.0739
v  2.7697 15.8709 -3.5133
v  3.4768 15.3068 -3.8980
v  3.4336 15.0411 -4.8434
v  1.2977 4.3266 -0.0880
v  -0.0240 0.0083 -0.0462
v  0.8024 4.4994 0.2404
v  0.0236 -0.0122 0.0921
v  0.7941 4.4184 0.8539
v  1.2813 4.1647 1.1391
v  1.7767 3.9919 0.8107
v  1.7849 4.0729 0.1972
v  2.9097 8.6185 0.7571
v  3.5783 8.2093 0.2322
v  2.8753 8.4582 1.6861
v  3.5095 7.8886 2.0903
v  4.1782 7.4794 1.5654
v  4.2125 7.6397 0.6363
v  6.0920 11.9865 1.5120
v  6.7040 11.3974 0.8957
v  6.0205 11.7743 2.5373
v  6.5608 10.9730 2.9463
v  7.1727 10.3839 2.3299
v  7.2443 10.5961 1.3047
v  9.5287 13.2286 1.6016
v  9.0675 13.8533 2.2042
v  9.2725 12.9256 2.5201
v  8.9722 13.6361 3.1581
v  9.3380 12.7941 3.5093
v  9.7992 12.1694 2.9067
v  9.8945 12.3866 1.9529
v  0.2966 3.2157 0.6263
v  0.0279 0.0205 -0.0607
v  -0.4711 3.3138 0.3552
v  -0.0753 -0.0372 0.0953
v  -1.1041 3.0886 0.8256
v  -0.9693 2.7653 1.5671
v  -0.2015 2.6671 1.8382
v  0.4314 2.8923 1.3679
v  -0.4124 6.4930 1.5813
v  0.7497 6.1534 1.8927
v  -1.3773 6.1497 2.2983
v  -1.1799 5.4669 3.3267
v  -0.0178 5.1274 3.6381
v  0.9470 5.4707 2.9211
v  0.1262 9.2769 3.5164
v  1.3798 8.7105 3.7198
v  -0.9470 8.8951 4.3139
v  -0.7666 7.9469 5.3150
v  0.4870 7.3805 5.5185
v  1.5602 7.7623 4.7209
v  1.9652 10.3392 5.4408
v  0.8368 10.9857 5.3675
v  0.9189 9.8982 6.0927
v  -0.1684 10.6281 6.1145
v  -0.0453 9.6240 6.9349
v  1.0831 8.9775 7.0083
v  2.0883 9.3352 6.2613
v  -2.3439 2.2957 -0.0797
v  -0.0228 -0.0088 -0.0655
v  -2.8678 1.7410 0.2207
v  0.0254 -0.0075 0.1242
v  -2.8406 1.5394 1.0152
v  -2.2895 1.8926 1.5092
v  -1.7655 2.4474 1.2087
v  -1.7927 2.6489 0.4143
v  -5.1143 4.2491 0.6755
v  -4.1848 4.9148 0.1697
v  -5.0877 3.9625 1.8920
v  -4.1317 4.3415 2.6028
v  -3.2023 5.0072 2.0971
v  -3.2288 5.2939 0.8805
v  -6.6023 7.2618 1.3090
v  -5.4664 7.7768 0.6937
v  -6.5844 6.9688 2.6682
v  -5.4308 7.1906 3.4123
v  -4.2949 7.7056 2.7970
v  -4.3128 7.9986 1.4378
v  -6.0406 10.0580 1.2637
v  -7.1474 9.7473 1.8760
v  -6.0065 9.6746 2.5150
v  -7.1356 9.4925 3.1532
v  -6.0170 9.5483 3.8182
v  -4.9102 9.8590 3.2058
v  -4.9220 10.1139 1.9286
# 216 vertices

vn 0.0090 -0.1316 -0.9913
vn 0.2170 -0.8577 -0.4662
vn -0.8043 -0.3490 -0.4809
vn 0.4940 -0.7634 0.4161
vn -0.8010 -0.3544 0.4826
vn 0.0041 -0.1364 0.9906
vn 0.8560 0.0949 0.5082
vn 0.8549 0.0892 -0.5111
vn -0.8653 -0.1214 -0.4864
vn -0.0264 -0.0655 -0.9975
vn -0.8656 -0.1211 0.4859
vn -0.0265 -0.0649 0.9975
vn 0.8587 -0.0056 0.5125
vn 0.8583 -0.0060 -0.5131
vn -0.8669 0.0986 -0.4886
vn -0.0275 -0.0005 -0.9996
vn -0.8669 0.0991 0.4886
vn -0.0273 0.0006 0.9996
vn 0.8528 -0.1021 0.5121
vn 0.8527 -0.1027 -0.5122
vn 0.1622 0.6394 -0.7515
vn -0.4716 0.7973 -0.3767
vn 0.2763 0.9611 -0.0000
vn -0.4716 0.7971 0.3770
vn 0.1621 0.6391 0.7518
vn 0.7914 0.4834 0.3742
vn 0.7915 0.4836 -0.3738
vn -0.4246 -0.6483 -0.6320
vn 0.1418 -0.9892 -0.0368
vn -0.8348 -0.4937 0.2438
vn 0.7517 -0.5271 0.3963
vn -0.3664 -0.0210 0.9302
vn 0.5239 0.3327 0.7842
vn 0.9751 0.1998 -0.0966
vn 0.4851 -0.3130 -0.8165
vn -0.9476 -0.2783 0.1570
vn -0.4868 -0.5741 -0.6584
vn -0.4778 0.2093 0.8532
vn 0.4774 0.4258 0.7686
vn 0.9886 0.1404 -0.0534
vn 0.4927 -0.3733 -0.7861
vn -0.9965 -0.0726 0.0422
vn -0.5071 -0.5004 -0.7018
vn -0.5231 0.4185 0.7424
vn 0.4611 0.5042 0.7302
vn 0.9966 0.0809 -0.0159
vn 0.5008 -0.4337 -0.7491
vn -0.3442 0.1466 -0.9274
vn -0.7373 0.5381 -0.4085
vn 0.0628 0.7972 -0.6004
vn -0.3689 0.9194 0.1367
vn 0.3902 0.9068 0.1597
vn 0.7771 0.5163 -0.3599
vn 0.4119 0.1383 -0.9007
vn 0.0492 -0.1155 -0.9921
vn 0.0068 -0.8423 -0.5389
vn -0.8346 -0.0715 -0.5462
vn 0.2174 -0.9059 0.3634
vn -0.9094 -0.0884 0.4064
vn -0.1396 -0.1417 0.9800
vn 0.7796 -0.1866 0.5979
vn 0.8874 -0.1798 -0.4245
vn -0.8178 0.1692 -0.5500
vn 0.0144 -0.1377 -0.9904
vn -0.8768 0.2528 0.4090
vn -0.1306 0.0425 0.9905
vn 0.7415 -0.2733 0.6127
vn 0.8316 -0.3713 -0.4130
vn -0.7290 0.3737 -0.5736
vn -0.0004 -0.1611 -0.9869
vn -0.7497 0.5403 0.3820
vn -0.0630 0.1927 0.9792
vn 0.6987 -0.3534 0.6220
vn 0.7432 -0.5427 -0.3913
vn 0.4385 0.3014 -0.8467
vn -0.0445 0.8136 -0.5797
vn 0.7031 0.6861 -0.1870
vn -0.0385 0.9873 0.1544
vn 0.4498 0.6458 0.6169
vn 0.9295 0.1358 0.3430
vn 0.9225 -0.0331 -0.3846
vn -0.8409 -0.0644 -0.5374
vn -0.6428 -0.7656 -0.0269
vn -0.8855 0.2584 0.3862
vn 0.1573 -0.9437 0.2911
vn -0.1387 0.1675 0.9761
vn 0.6924 -0.2349 0.6822
vn 0.7796 -0.5728 -0.2533
vn -0.0154 -0.4899 -0.8716
vn -0.8118 0.4942 0.3112
vn -0.8304 0.0335 -0.5561
vn -0.0518 0.4114 0.9100
vn 0.7286 -0.1367 0.6711
vn 0.7502 -0.6267 -0.2109
vn -0.0512 -0.5388 -0.8409
vn -0.7066 0.6791 0.1989
vn -0.7948 0.1021 -0.5982
vn 0.0589 0.5957 0.8011
vn 0.7709 -0.0685 0.6333
vn 0.7162 -0.6761 -0.1732
vn -0.0858 -0.5888 -0.8037
vn -0.2374 0.4385 -0.8668
vn -0.1412 0.9416 -0.3058
vn 0.5545 0.5461 -0.6279
vn 0.4539 0.8760 0.1632
vn 0.9490 0.3079 0.0683
vn 0.8493 -0.1899 -0.4926
vn 0.2593 -0.1249 -0.9577
vn -0.0704 -0.3633 -0.9290
vn -0.0486 -0.9751 -0.2163
vn -0.8903 -0.2166 -0.4005
vn 0.2981 -0.7069 0.6414
vn -0.8464 0.0405 0.5309
vn 0.0124 0.1725 0.9849
vn 0.8761 0.0357 0.4808
vn 0.8293 -0.2450 -0.5022
vn -0.8858 -0.0051 -0.4640
vn -0.0835 -0.3090 -0.9474
vn -0.8432 0.2581 0.4716
vn 0.0042 0.2312 0.9729
vn 0.8536 -0.0745 0.5156
vn 0.8082 -0.3522 -0.4719
vn -0.8324 0.1859 -0.5221
vn -0.0705 -0.2627 -0.9623
vn -0.7893 0.4503 0.4174
vn 0.0177 0.2785 0.9603
vn 0.8193 -0.1777 0.5452
vn 0.7741 -0.4551 -0.4401
vn 0.2941 0.3583 -0.8861
vn -0.2532 0.7662 -0.5907
vn 0.5150 0.8188 -0.2537
vn -0.2205 0.9673 0.1252
vn 0.3592 0.7596 0.5422
vn 0.9030 0.3539 0.2436
vn 0.8706 0.1542 -0.4673
vn -0.0558 0.0553 -0.9969
vn -0.3654 -0.7497 -0.5518
vn -0.8265 0.3270 -0.4582
vn -0.0750 -0.9345 0.3481
vn -0.8458 0.1974 0.4956
vn -0.0892 -0.2071 0.9742
vn 0.7352 -0.5019 0.4556
vn 0.7397 -0.3669 -0.5641
vn -0.7032 0.5701 -0.4248
vn -0.0213 0.1546 -0.9878
vn -0.7436 0.4088 0.5291
vn -0.0953 -0.1850 0.9781
vn 0.6352 -0.6408 0.4311
vn 0.6676 -0.4610 -0.5847
vn -0.5304 0.7562 -0.3831
vn 0.0430 0.2230 -0.9739
vn -0.5981 0.5651 0.5683
vn -0.0889 -0.1769 0.9802
vn 0.5197 -0.7539 0.4020
vn 0.5834 -0.5435 -0.6035
vn 0.6363 0.4902 -0.5957
vn 0.2662 0.9529 -0.1450
vn 0.8686 0.4573 0.1909
vn 0.1991 0.7909 0.5787
vn 0.5028 0.1675 0.8480
vn 0.8713 -0.2891 0.3965
vn 0.9380 -0.1297 -0.3215
vn 0.7479 0.1156 -0.6537
vn 0.3750 -0.6913 -0.6177
vn -0.1759 0.2363 -0.9556
vn -0.1018 -0.9932 0.0565
vn -0.9119 -0.0347 -0.4089
vn -0.7747 -0.4269 0.4665
vn 0.1520 -0.5628 0.8125
vn 0.9296 -0.2899 0.2276
vn -0.1794 0.4763 -0.8608
vn 0.7404 0.2142 -0.6372
vn -0.9292 0.2103 -0.3038
vn -0.7965 -0.3316 0.5056
vn 0.1326 -0.6222 0.7716
vn 0.9217 -0.3414 0.1840
vn -0.1453 0.6725 -0.7257
vn 0.7544 0.2873 -0.5902
vn -0.8995 0.4047 -0.1645
vn -0.7882 -0.2602 0.5577
vn 0.1179 -0.6758 0.7276
vn 0.9078 -0.3955 0.1396
vn 0.7761 0.6302 0.0246
vn 0.1116 0.9931 -0.0369
vn 0.3108 0.6240 0.7170
vn -0.4754 0.7840 0.3991
vn -0.3942 0.2135 0.8939
vn 0.2698 -0.1441 0.9521
vn 0.8519 0.0632 0.5198
vn 0.0646 0.0958 -0.9933
vn 0.5624 -0.5295 -0.6350
vn -0.5620 -0.5565 -0.6120
vn 0.7957 -0.5674 0.2118
vn -0.5218 -0.7934 0.3134
vn 0.1260 -0.3944 0.9102
vn 0.7778 0.2749 0.5652
vn 0.7483 0.5172 -0.4154
vn -0.7290 -0.3785 -0.5703
vn -0.0043 0.1386 -0.9903
vn -0.7072 -0.5992 0.3752
vn 0.0368 -0.3157 0.9481
vn 0.7994 0.2152 0.5609
vn 0.7803 0.4496 -0.4347
vn -0.8323 -0.1772 -0.5253
vn -0.0369 0.1985 -0.9794
vn -0.8175 -0.3827 0.4304
vn -0.0109 -0.2231 0.9747
vn 0.8201 0.1598 0.5495
vn 0.8092 0.3765 -0.4510
vn -0.1345 0.7780 -0.6137
vn -0.7764 0.5723 -0.2638
vn -0.1639 0.9671 0.1945
vn -0.7691 0.4205 0.4813
vn -0.1197 0.4750 0.8718
vn 0.5169 0.6812 0.5184
vn 0.5091 0.8320 -0.2205
# 216 vertex normals

vt 0.0010 0.2502 0.5000
vt 0.1675 0.0005 0.5000
vt 0.3340 0.2502 0.5000
vt 1.1665 0.0005 0.5000
vt 0.6670 0.2502 0.5000
vt 1.0000 0.2502 0.5000
vt 1.3330 0.2502 0.5000
vt 1.6660 0.2502 0.5000
vt 1.9990 0.0005 0.5000
vt 1.9990 0.2502 0.5000
vt 0.3340 0.5000 0.5000
vt 0.0010 0.5000 0.5000
vt 0.6670 0.5000 0.5000
vt 1.0000 0.5000 0.5000
vt 1.3330 0.5000 0.5000
vt 1.6660 0.5000 0.5000
vt 1.9990 0.5000 0.5000
vt 0.3340 0.7498 0.5000
vt 0.0010 0.7498 0.5000
vt 0.6670 0.7498 0.5000
vt 1.0000 0.7498 0.5000
vt 1.3330 0.7498 0.5000
vt 1.6660 0.7498 0.5000
vt 1.9990 0.7498 0.5000
vt 0.0010 0.9398 0.5000
vt 0.3340 0.9398 0.5000
vt 1.0000 0.9995 0.5000
vt 0.6670 0.9398 0.5000
vt 1.0000 0.9398 0.5000
vt 1.3330 0.9398 0.5000
vt 1.6660 0.9398 0.5000
vt 1.9990 0.9398 0.5000
# 32 texture coords

g FingerSponge01
s 1
f 1/1/1 2/2/2 3/3/3 
f 2/2/2 4/4/4 5/5/5 3/3/3 
f 5/5/5 4/4/4 6/6/6 
f 6/6/6 4/4/4 7/7/7 
f 7/7/7 4/4/4 8/8/8 
f 4/4/4 2/9/2 1/10/1 8/8/8 
f 1/1/1 3/3/3 9/11/9 10/12/10 
f 3/3/3 5/5/5 11/13/11 9/11/9 
f 5/5/5 6/6/6 12/14/12 11/13/11 
f 6/6/6 7/7/7 13/15/13 12/14/12 
f 7/7/7 8/8/8 14/16/14 13/15/13 
f 8/8/8 1/10/1 10/17/10 14/16/14 
f 10/12/10 9/11/9 15/18/15 16/19/16 
f 9/11/9 11/13/11 17/20/17 15/18/15 
f 11/13/11 12/14/12 18/21/18 17/20/17 
f 12/14/12 13/15/13 19/22/19 18/21/18 
f 13/15/13 14/16/14 20/23/20 19/22/19 
f 14/16/14 10/17/10 16/24/16 20/23/20 
f 21/25/21 22/26/22 23/27/23 
f 22/26/22 24/28/24 23/27/23 
f 24/28/24 25/29/25 23/27/23 
f 25/29/25 26/30/26 23/27/23 
f 26/30/26 27/31/27 23/27/23 
f 23/27/23 27/31/27 21/32/21 
f 16/19/16 15/18/15 22/26/22 21/25/21 
f 15/18/15 17/20/17 24/28/24 22/26/22 
f 17/20/17 18/21/18 25/29/25 24/28/24 
f 18/21/18 19/22/19 26/30/26 25/29/25 
f 19/22/19 20/23/20 27/31/27 26/30/26 
f 20/23/20 16/24/16 21/32/21 27/31/27 
f 28/1/28 29/2/29 30/3/30 
f 29/2/29 31/4/31 32/5/32 30/3/30 
f 32/5/32 31/4/31 33/6/33 
f 33/6/33 31/4/31 34/7/34 
f 34/7/34 31/4/31 35/8/35 
f 31/4/31 29/9/29 28/10/28 35/8/35 
f 28/1/28 30/3/30 36/11/36 37/12/37 
f 30/3/30 32/5/32 38/13/38 36/11/36 
f 32/5/32 33/6/33 39/14/39 38/13/38 
f 33/6/33 34/7/34 40/15/40 39/14/39 
f 34/7/34 35/8/35 41/16/41 40/15/40 
f 35/8/35 28/10/28 37/17/37 41/16/41 
f 37/12/37 36/11/36 42/18/42 43/19/43 
f 36/11/36 38/13/38 44/20/44 42/18/42 
f 38/13/38 39/14/39 45/21/45 44/20/44 
f 39/14/39 40/15/40 46/22/46 45/21/45 
f 40/15/40 41/16/41 47/23/47 46/22/46 
f 41/16/41 37/17/37 43/24/43 47/23/47 
f 48/25/48 49/26/49 50/27/50 
f 49/26/49 51/28/51 50/27/50 
f 51/28/51 52/29/52 50/27/50 
f 52/29/52 53/30/53 50/27/50 
f 53/30/53 54/31/54 50/27/50 
f 50/27/50 54/31/54 48/32/48 
f 43/19/43 42/18/42 49/26/49 48/25/48 
f 42/18/42 44/20/44 51/28/51 49/26/49 
f 44/20/44 45/21/45 52/29/52 51/28/51 
f 45/21/45 46/22/46 53/30/53 52/29/52 
f 46/22/46 47/23/47 54/31/54 53/30/53 
f 47/23/47 43/24/43 48/32/48 54/31/54 
f 55/1/55 56/2/56 57/3/57 
f 56/2/56 58/4/58 59/5/59 57/3/57 
f 59/5/59 58/4/58 60/6/60 
f 60/6/60 58/4/58 61/7/61 
f 61/7/61 58/4/58 62/8/62 
f 58/4/58 56/9/56 55/10/55 62/8/62 
f 55/1/55 57/3/57 63/11/63 64/12/64 
f 57/3/57 59/5/59 65/13/65 63/11/63 
f 59/5/59 60/6/60 66/14/66 65/13/65 
f 60/6/60 61/7/61 67/15/67 66/14/66 
f 61/7/61 62/8/62 68/16/68 67/15/67 
f 62/8/62 55/10/55 64/17/64 68/16/68 
f 64/12/64 63/11/63 69/18/69 70/19/70 
f 63/11/63 65/13/65 71/20/71 69/18/69 
f 65/13/65 66/14/66 72/21/72 71/20/71 
f 66/14/66 67/15/67 73/22/73 72/21/72 
f 67/15/67 68/16/68 74/23/74 73/22/73 
f 68/16/68 64/17/64 70/24/70 74/23/74 
f 75/25/75 76/26/76 77/27/77 
f 76/26/76 78/28/78 77/27/77 
f 78/28/78 79/29/79 77/27/77 
f 79/29/79 80/30/80 77/27/77 
f 80/30/80 81/31/81 77/27/77 
f 77/27/77 81/31/81 75/32/75 
f 70/19/70 69/18/69 76/26/76 75/25/75 
f 69/18/69 71/20/71 78/28/78 76/26/76 
f 71/20/71 72/21/72 79/29/79 78/28/78 
f 72/21/72 73/22/73 80/30/80 79/29/79 
f 73/22/73 74/23/74 81/31/81 80/30/80 
f 74/23/74 70/24/70 75/32/75 81/31/81 
f 82/1/82 83/2/83 84/3/84 
f 83/2/83 85/4/85 86/5/86 84/3/84 
f 86/5/86 85/4/85 87/6/87 
f 87/6/87 85/4/85 88/7/88 
f 88/7/88 85/4/85 89/8/89 
f 85/4/85 83/9/83 82/10/82 89/8/89 
f 82/1/82 84/3/84 90/11/90 91/12/91 
f 84/3/84 86/5/86 92/13/92 90/11/90 
f 86/5/86 87/6/87 93/14/93 92/13/92 
f 87/6/87 88/7/88 94/15/94 93/14/93 
f 88/7/88 89/8/89 95/16/95 94/15/94 
f 89/8/89 82/10/82 91/17/91 95/16/95 
f 91/12/91 90/11/90 96/18/96 97/19/97 
f 90/11/90 92/13/92 98/20/98 96/18/96 
f 92/13/92 93/14/93 99/21/99 98/20/98 
f 93/14/93 94/15/94 100/22/100 99/21/99 
f 94/15/94 95/16/95 101/23/101 100/22/100 
f 95/16/95 91/17/91 97/24/97 101/23/101 
f 102/25/102 103/26/103 104/27/104 
f 103/26/103 105/28/105 104/27/104 
f 105/28/105 106/29/106 104/27/104 
f 106/29/106 107/30/107 104/27/104 
f 107/30/107 108/31/108 104/27/104 
f 104/27/104 108/31/108 102/32/102 
f 97/19/97 96/18/96 103/26/103 102/25/102 
f 96/18/96 98/20/98 105/28/105 103/26/103 
f 98/20/98 99/21/99 106/29/106 105/28/105 
f 99/21/99 100/22/100 107/30/107 106/29/106 
f 100/22/100 101/23/101 108/31/108 107/30/107 
f 101/23/101 97/24/97 102/32/102 108/31/108 
f 109/1/109 110/2/110 111/3/111 
f 110/2/110 112/4/112 113/5/113 111/3/111 
f 113/5/113 112/4/112 114/6/114 
f 114/6/114 112/4/112 115/7/115 
f 115/7/115 112/4/112 116/8/116 
f 112/4/112 110/9/110 109/10/109 116/8/116 
f 109/1/109 111/3/111 117/11/117 118/12/118 
f 111/3/111 113/5/113 119/13/119 117/11/117 
f 113/5/113 114/6/114 120/14/120 119/13/119 
f 114/6/114 115/7/115 121/15/121 120/14/120 
f 115/7/115 116/8/116 122/16/122 121/15/121 
f 116/8/116 109/10/109 118/17/118 122/16/122 
f 118/12/118 117/11/117 123/18/123 124/19/124 
f 117/11/117 119/13/119 125/20/125 123/18/123 
f 119/13/119 120/14/120 126/21/126 125/20/125 
f 120/14/120 121/15/121 127/22/127 126/21/126 
f 121/15/121 122/16/122 128/23/128 127/22/127 
f 122/16/122 118/17/118 124/24/124 128/23/128 
f 129/25/129 130/26/130 131/27/131 
f 130/26/130 132/28/132 131/27/131 
f 132/28/132 133/29/133 131/27/131 
f 133/29/133 134/30/134 131/27/131 
f 134/30/134 135/31/135 131/27/131 
f 131/27/131 135/31/135 129/32/129 
f 124/19/124 123/18/123 130/26/130 129/25/129 
f 123/18/123 125/20/125 132/28/132 130/26/130 
f 125/20/125 126/21/126 133/29/133 132/28/132 
f 126/21/126 127/22/127 134/30/134 133/29/133 
f 127/22/127 128/23/128 135/31/135 134/30/134 
f 128/23/128 124/24/124 129/32/129 135/31/135 
f 136/1/136 137/2/137 138/3/138 
f 137/2/137 139/4/139 140/5/140 138/3/138 
f 140/5/140 139/4/139 141/6/141 
f 141/6/141 139/4/139 142/7/142 
f 142/7/142 139/4/139 143/8/143 
f 139/4/139 137/9/137 136/10/136 143/8/143 
f 136/1/136 138/3/138 144/11/144 145/12/145 
f 138/3/138 140/5/140 146/13/146 144/11/144 
f 140/5/140 141/6/141 147/14/147 146/13/146 
f 141/6/141 142/7/142 148/15/148 147/14/147 
f 142/7/142 143/8/143 149/16/149 148/15/148 
f 143/8/143 136/10/136 145/17/145 149/16/149 
f 145/12/145 144/11/144 150/18/150 151/19/151 
f 144/11/144 146/13/146 152/20/152 150/18/150 
f 146/13/146 147/14/147 153/21/153 152/20/152 
f 147/14/147 148/15/148 154/22/154 153/21/153 
f 148/15/148 149/16/149 155/23/155 154/22/154 
f 149/16/149 145/17/145 151/24/151 155/23/155 
f 156/25/156 157/26/157 158/27/158 
f 157/26/157 159/28/159 158/27/158 
f 159/28/159 160/29/160 158/27/158 
f 160/29/160 161/30/161 158/27/158 
f 161/30/161 162/31/162 158/27/158 
f 158/27/158 162/31/162 156/32/156 
f 151/19/151 150/18/150 157/26/157 156/25/156 
f 150/18/150 152/20/152 159/28/159 157/26/157 
f 152/20/152 153/21/153 160/29/160 159/28/159 
f 153/21/153 154/22/154 161/30/161 160/29/160 
f 154/22/154 155/23/155 162/31/162 161/30/161 
f 155/23/155 151/24/151 156/32/156 162/31/162 
f 163/1/163 164/2/164 165/3/165 
f 164/2/164 166/4/166 167/5/167 165/3/165 
f 167/5/167 166/4/166 168/6/168 
f 168/6/168 166/4/166 169/7/169 
f 169/7/169 166/4/166 170/8/170 
f 166/4/166 164/9/164 163/10/163 170/8/170 
f 163/1/163 165/3/165 171/11/171 172/12/172 
f 165/3/165 167/5/167 173/13/173 171/11/171 
f 167/5/167 168/6/168 174/14/174 173/13/173 
f 168/6/168 169/7/169 175/15/175 174/14/174 
f 169/7/169 170/8/170 176/16/176 175/15/175 
f 170/8/170 163/10/163 172/17/172 176/16/176 
f 172/12/172 171/11/171 177/18/177 178/19/178 
f 171/11/171 173/13/173 179/20/179 177/18/177 
f 173/13/173 174/14/174 180/21/180 179/20/179 
f 174/14/174 175/15/175 181/22/181 180/21/180 
f 175/15/175 176/16/176 182/23/182 181/22/181 
f 176/16/176 172/17/172 178/24/178 182/23/182 
f 183/25/183 184/26/184 185/27/185 
f 184/26/184 186/28/186 185/27/185 
f 186/28/186 187/29/187 185/27/185 
f 187/29/187 188/30/188 185/27/185 
f 188/30/188 189/31/189 185/27/185 
f 185/27/185 189/31/189 183/32/183 
f 178/19/178 177/18/177 184/26/184 183/25/183 
f 177/18/177 179/20/179 186/28/186 184/26/184 
f 179/20/179 180/21/180 187/29/187 186/28/186 
f 180/21/180 181/22/181 188/30/188 187/29/187 
f 181/22/181 182/23/182 189/31/189 188/30/188 
f 182/23/182 178/24/178 183/32/183 189/31/189 
f 190/1/190 191/2/191 192/3/192 
f 191/2/191 193/4/193 194/5/194 192/3/192 
f 194/5/194 193/4/193 195/6/195 
f 195/6/195 193/4/193 196/7/196 
f 196/7/196 193/4/193 197/8/197 
f 193/4/193 191/9/191 190/10/190 197/8/197 
f 190/1/190 192/3/192 198/11/198 199/12/199 
f 192/3/192 194/5/194 200/13/200 198/11/198 
f 194/5/194 195/6/195 201/14/201 200/13/200 
f 195/6/195 196/7/196 202/15/202 201/14/201 
f 196/7/196 197/8/197 203/16/203 202/15/202 
f 197/8/197 190/10/190 199/17/199 203/16/203 
f 199/12/199 198/11/198 204/18/204 205/19/205 
f 198/11/198 200/13/200 206/20/206 204/18/204 
f 200/13/200 201/14/201 207/21/207 206/20/206 
f 201/14/201 202/15/202 208/22/208 207/21/207 
f 202/15/202 203/16/203 209/23/209 208/22/208 
f 203/16/203 199/17/199 205/24/205 209/23/209 
f 210/25/210 211/26/211 212/27/212 
f 211/26/211 213/28/213 212/27/212 
f 213/28/213 214/29/214 212/27/212 
f 214/29/214 215/30/215 212/27/212 
f 215/30/215 216/31/216 212/27/212 
f 212/27/212 216/31/216 210/32/210 
f 205/19/205 204/18/204 211/26/211 210/25/210 
f 204/18/204 206/20/206 213/28/213 211/26/211 
f 206/20/206 207/21/207 214/29/214 213/28/213 
f 207/21/207 208/22/208 215/30/215 214/29/214 
f 208/22/208 209/23/209 216/31/216 215/30/215 
f 209/23/209 205/24/205 210/32/210 216/31/216 
# 160 polygons - 80 triangles

